<?xml version="1.0" encoding="UTF-8"?>
<svg width="1200" height="450" xmlns="http://www.w3.org/2000/svg">
  <defs>
    <style>
      .problem-box { fill: #ffebee; stroke: #f44336; stroke-width: 3; }
      .solution-box { fill: #e8f5e9; stroke: #4caf50; stroke-width: 2; }
      .title-text { font-family: Arial, sans-serif; font-size: 18px; font-weight: bold; fill: #333; text-anchor: middle; }
      .content-text { font-family: Arial, sans-serif; font-size: 14px; fill: #444; text-anchor: start; }
      .arrow { stroke: #666; stroke-width: 2; fill: none; marker-end: url(#arrowhead); }
    </style>
    <marker id="arrowhead" markerWidth="10" markerHeight="10" refX="9" refY="3" orient="auto">
      <polygon points="0 0, 10 3, 0 6" fill="#666" />
    </marker>
  </defs>
  
  <!-- Title -->
  <rect x="450" y="20" width="300" height="60" rx="10" class="problem-box"/>
  <text x="600" y="58" class="title-text">⚠️ Having Issues?</text>
  
  <!-- Solution 1 -->
  <line x1="600" y1="80" x2="150" y2="140" class="arrow"/>
  <rect x="20" y="140" width="260" height="80" rx="10" class="solution-box"/>
  <text x="150" y="168" class="title-text">Module not found</text>
  <text x="30" y="195" class="content-text">✅ Add pypdf2 & pillow</text>
  <text x="30" y="215" class="content-text">in Packages tab</text>
  
  <!-- Solution 2 -->
  <line x1="600" y1="80" x2="390" y2="140" class="arrow"/>
  <rect x="300" y="140" width="260" height="80" rx="10" class="solution-box"/>
  <text x="430" y="168" class="title-text">UDF not found</text>
  <text x="310" y="195" class="content-text">✅ Re-run setup.sql</text>
  <text x="310" y="215" class="content-text">Verify: SHOW FUNCTIONS</text>
  
  <!-- Solution 3 -->
  <line x1="600" y1="80" x2="650" y2="140" class="arrow"/>
  <rect x="580" y="140" width="260" height="80" rx="10" class="solution-box"/>
  <text x="710" y="168" class="title-text">Permission denied</text>
  <text x="590" y="195" class="content-text">✅ Grant READ/WRITE</text>
  <text x="590" y="215" class="content-text">on stages to role</text>
  
  <!-- Solution 4 -->
  <line x1="600" y1="80" x2="900" y2="140" class="arrow"/>
  <rect x="860" y="140" width="300" height="80" rx="10" class="solution-box"/>
  <text x="1010" y="168" class="title-text">Cortex not available</text>
  <text x="870" y="192" class="content-text">✅ Run: SHOW CORTEX</text>
  <text x="870" y="210" class="content-text">FUNCTIONS; Contact support</text>
  
  <!-- Solution 5 -->
  <line x1="600" y1="80" x2="370" y2="280" class="arrow"/>
  <rect x="300" y="280" width="260" height="80" rx="10" class="solution-box"/>
  <text x="430" y="308" class="title-text">App slow</text>
  <text x="310" y="335" class="content-text">✅ Increase warehouse</text>
  <text x="310" y="355" class="content-text">to MEDIUM or LARGE</text>
  
  <!-- Solution 6 -->
  <line x1="600" y1="80" x2="650" y2="280" class="arrow"/>
  <rect x="580" y="280" width="260" height="80" rx="10" class="solution-box"/>
  <text x="710" y="308" class="title-text">Buttons don't work</text>
  <text x="590" y="333" class="content-text">✅ Check warehouse running</text>
  <text x="590" y="353" class="content-text">Verify UDFs exist</text>
  
  <!-- Bottom note -->
  <text x="600" y="410" style="font-family: Arial; font-size: 16px; fill: #666; text-anchor: middle;">
    📖 For detailed troubleshooting, see SETUP_GUIDE.md
  </text>
</svg>

